<svg width="18" height="19" viewBox="0 0 18 19" fill="none" xmlns="http://www.w3.org/2000/svg">
<path fill-rule="evenodd" clip-rule="evenodd" d="M10.8186 6.09191V4.31917C10.8186 3.03833 9.78024 2 8.4994 2C7.21856 2 6.18024 3.03833 6.18024 4.31917V6.09191C6.18024 7.37275 7.21856 8.41108 8.4994 8.41108C9.78024 8.41108 10.8186 7.37275 10.8186 6.09191ZM8.4994 0C6.11399 0 4.18024 1.93376 4.18024 4.31917V6.09191C4.18024 8.47732 6.11399 10.4111 8.4994 10.4111C10.8848 10.4111 12.8186 8.47732 12.8186 6.09191V4.31917C12.8186 1.93376 10.8848 0 8.4994 0Z" fill="#00093C"/>
<path fill-rule="evenodd" clip-rule="evenodd" d="M13.2795 13.4111H4C2.89543 13.4111 2 14.3066 2 15.4111V16.3229H15.2795V15.4111C15.2795 14.3066 14.3841 13.4111 13.2795 13.4111ZM4 11.4111C1.79086 11.4111 0 13.202 0 15.4111V16.3229C0 17.4275 0.895433 18.3229 2 18.3229H15.2795C16.3841 18.3229 17.2795 17.4275 17.2795 16.3229V15.4111C17.2795 13.202 15.4886 11.4111 13.2795 11.4111H4Z" fill="#00093C"/>
</svg>
