<svg width="17" height="20" viewBox="0 0 17 20" fill="none" xmlns="http://www.w3.org/2000/svg">
<path fill-rule="evenodd" clip-rule="evenodd" d="M11.357 15.2523C13.385 13.284 15 10.9065 15 8.5C15 4.91015 12.0899 2 8.5 2C4.91015 2 2 4.91015 2 8.5C2 10.9065 3.61498 13.284 5.64295 15.2523C6.6154 16.1962 7.59573 16.9611 8.33586 17.4908C8.39211 17.5311 8.44686 17.5699 8.5 17.6072C8.55314 17.5699 8.60789 17.5311 8.66414 17.4908C9.40427 16.9611 10.3846 16.1962 11.357 15.2523ZM8.5 20C8.5 20 17 15 17 8.5C17 3.80558 13.1944 0 8.5 0C3.80558 0 0 3.80558 0 8.5C0 15 8.5 20 8.5 20Z" fill="#00093C"/>
<path d="M11 7.5C11 8.88071 9.88071 10 8.5 10C7.11929 10 6 8.88071 6 7.5C6 6.11929 7.11929 5 8.5 5C9.88071 5 11 6.11929 11 7.5Z" fill="#00093C"/>
</svg>
